<svg xmlns="http://www.w3.org/2000/svg" width="24" height="24" fill="none"><g clip-path="url(#clip0_46_2634)"><path d="M2.182 0A2.197 2.197 0 000 2.182v19.636C0 23.012.988 24 2.182 24h19.636A2.197 2.197 0 0024 21.818V2.182A2.197 2.197 0 0021.818 0H2.182zm0 2.182h19.636v19.636h-5.66v-7.364h2.83l.41-3.272H16.16V9.068c0-.954.233-1.602 1.601-1.602h1.773V4.5c-.302-.038-1.35-.103-2.556-.103-2.515 0-4.228 1.514-4.228 4.33v2.455H9.888v3.272h2.862v7.364H2.182V2.182z"/></g><defs><clipPath id="clip0_46_2634"><path fill="#fff" d="M0 0h24v24H0z"/></clipPath></defs></svg>