<svg width="20" height="20" viewBox="0 0 20 20" fill="none" xmlns="http://www.w3.org/2000/svg">
<g id="20/tourist-luggage">
<path id="Vector" d="M15.03 4C16.11 4 17 4.88 17 6V17C17 18.13 16.11 19 15.03 19C15.03 19.58 14.56 20 14 20C13.5 20 13 19.58 13 19H7C7 19.58 6.5 20 6 20C5.44 20 4.97 19.58 4.97 19C3.89 19 3 18.13 3 17V6C3 4.88 3.89 4 4.97 4H7V1C7 0.42 7.46 0 8 0H12C12.54 0 13 0.42 13 1V4H15.03ZM11.5 4V1.5H8.5V4H11.5ZM6 7V16H7.5V7H6ZM12.5 7V16H14V7H12.5ZM9.25 7V16H10.75V7H9.25Z" fill="#2E3442"/>
</g>
</svg>
